<svg viewBox="0 35 320 295">
  <g>
    <path
      fill="#493df0"
      d="M294.684 112.125c-8.775-10.699-25.381-16.201-43-22.006-7.56-2.498-15.357-5.097-22.985-8.235-7.695-3.173-15.256-7.257-22.613-11.172-14.952-8.033-30.41-16.336-46.105-16.336-15.661 0-31.119 8.303-46.071 16.336-7.358 3.949-14.952 8.033-22.648 11.205-7.594 3.139-15.425 5.704-22.985 8.236-17.618 5.839-34.224 11.341-42.999 22.006-11.712 14.277-11.442 35.439-11.172 57.817.034 3.375.068 6.717.067 10.024 0 3.308-.034 6.649-.101 10.024-.27 22.411-.54 43.54 11.172 57.851 8.775 10.666 25.381 16.167 42.966 22.006 7.56 2.498 15.357 5.097 23.019 8.235 7.695 3.173 15.256 7.223 22.579 11.172 14.986 8.067 30.444 16.37 46.105 16.37 15.695 0 31.153-8.303 46.105-16.336 7.358-3.949 14.918-8.033 22.614-11.172 7.594-3.139 15.357-5.704 22.884-8.202 17.72-5.873 34.326-11.374 43.101-22.039 11.712-14.277 11.442-35.439 11.171-57.817-.034-3.409-.101-6.75-.101-10.058s.034-6.649.101-9.991c.371-22.479.641-43.641-11.104-57.918zm10.868-8.91c-15.728-19.171-45.801-23.727-71.486-34.326-22.985-9.45-46.375-28.588-74.051-28.587-27.676 0-51.066 19.137-74.052 28.587-25.719 10.598-55.758 15.155-71.486 34.326C-2.601 124.006.166 153.336.166 180c0 26.63-2.768 55.994 14.277 76.785 15.728 19.171 45.801 23.727 71.487 34.326 22.985 9.484 46.375 28.588 74.051 28.587 27.676 0 51.066-19.103 74.051-28.587 25.719-10.598 55.758-15.155 71.486-34.326 17.045-20.791 14.277-50.121 14.277-76.785.068-26.664 2.835-55.994-14.243-76.785zm4.32 86.708c.304 23.221.574 45.059-12.083 60.483-9.518 11.577-26.664 17.281-44.822 23.289-7.56 2.498-15.29 5.063-22.715 8.134-7.493 3.071-14.952 7.088-22.175 10.969-15.458 8.303-31.355 16.842-48.062 16.842-16.707 0-32.604-8.539-47.995-16.808-7.257-3.915-14.75-7.932-22.243-11.003-7.527-3.105-15.256-5.67-22.748-8.134-18.192-6.008-35.338-11.712-44.823-23.289-12.623-15.391-12.353-37.262-12.083-60.415.034-3.375.101-6.683.101-9.991s-.034-6.615-.067-9.991c-.304-23.154-.574-45.025 12.083-60.415 9.518-11.577 26.664-17.247 44.822-23.289 7.527-2.498 15.256-5.063 22.749-8.134 7.493-3.105 14.986-7.122 22.242-11.003 15.391-8.269 31.322-16.842 47.995-16.842s32.604 8.539 47.995 16.808c7.257 3.915 14.75 7.932 22.243 11.003 7.493 3.105 15.256 5.637 22.715 8.134 18.158 6.008 35.338 11.712 44.822 23.289 12.657 15.425 12.387 37.262 12.083 60.416-.034 3.409-.101 6.717-.101 9.99 0 3.308.034 6.615.067 9.957z"
      data-fill-palette-color="tertiary"
      font-family="none"
      font-size="none"
      font-weight="none"
      style="mix-blend-mode:normal"
      text-anchor="none"></path>
  </g>
  <g transform="translate(88.084 108)">
    <svg
      width="143.831"
      height="144"
      data-palette-color="#ffffff"
      viewBox="1.945 -36.82 37.455 37.5"
    >
      <path
        fill="#fff"
        d="M3.03.68 1.95.1v-11.04q-.05-6.05.39-23.09v-2.01q0-.53.2-.63h16.8q.24 0 .98 1.86.75 1.85 1.81 4.77 1.06 2.92 1.5 4.01l3.42 8.94v-9.47q0-1.22.06-4.48.06-3.26.04-5.09 0-.69 3.9-.69 1.23 0 3.35.05t2.61.05h1.86q.39 0 .39.15.14 6.78.14 19.43V-.2q-.17.64-1.56.64h-.63q-1.27 0-3.74.05-2.46.05-3.73.05h-7.18q-.34-.12-1.42-3.08-1.14-3.2-3.42-9.25-2.27-6.06-2.53-6.76 0 1.44-.03 4.29-.02 2.86-.02 4.3 0 1.07.05 3.22.04 2.15.04 3.22v3.08q0 1.12-.97 1.12H3.03Zm36.23-37.2v-.1.1Z"
        data-fill-palette-color="quaternary"></path>
    </svg>
  </g>
</svg>
